<?xml version="1.0" encoding="UTF-8" standalone="no"?>
<svg
   version="1.1"
   id="Layer_1"
   x="0px"
   y="0px"
   width="200"
   height="200"
   viewBox="0 0 200 200"
   enable-background="new 0 0 232 232"
   xml:space="preserve"
   sodipodi:docname="qr-code.svg"
   inkscape:version="1.3 (0e150ed6c4, 2023-07-21)"
   xmlns:inkscape="http://www.inkscape.org/namespaces/inkscape"
   xmlns:sodipodi="http://sodipodi.sourceforge.net/DTD/sodipodi-0.dtd"
   xmlns="http://www.w3.org/2000/svg"
   xmlns:svg="http://www.w3.org/2000/svg"><defs
   id="defs581" /><sodipodi:namedview
   id="namedview581"
   pagecolor="#ffffff"
   bordercolor="#000000"
   borderopacity="0.25"
   inkscape:showpageshadow="2"
   inkscape:pageopacity="0.0"
   inkscape:pagecheckerboard="0"
   inkscape:deskcolor="#d1d1d1"
   inkscape:zoom="5.2025862"
   inkscape:cx="99.95029"
   inkscape:cy="100.0464"
   inkscape:window-width="2560"
   inkscape:window-height="1411"
   inkscape:window-x="0"
   inkscape:window-y="0"
   inkscape:window-maximized="1"
   inkscape:current-layer="Layer_1" />&#10;<g
   id="g581"><g
     transform="matrix(0.08,0,0,0.08,112,0)"
     id="g3"><g
       style="fill:#000000"
       id="g2">&#10;<g
   id="g1">&#10;	<path
   d="M 100,34.375 C 100,24.87 96.646,16.764 89.941,10.059 83.236,3.354 75.13,0 65.625,0 H 34.375 C 24.87,0 16.764,3.353 10.059,10.059 3.354,16.765 0,24.87 0,34.375 v 31.25 c 0,0.521 0.065,1.303 0.195,2.344 H 0 V 100 H 100 V 67.969 H 99.805 C 99.937,66.928 100,66.147 100,65.625 Z"
   id="path1" />&#10;</g>&#10;</g></g><g
     transform="matrix(0.08,0,0,0.08,64,8)"
     id="g6"><g
       style="fill:#000000"
       id="g5">&#10;<g
   id="g4">&#10;	<path
   d="M 100,34.375 C 100,24.87 96.646,16.764 89.941,10.059 83.236,3.354 75.13,0 65.625,0 H 34.375 C 24.87,0 16.764,3.353 10.059,10.059 3.354,16.765 0,24.87 0,34.375 v 31.25 c 0,0.521 0.065,1.303 0.195,2.344 H 0 V 100 H 100 V 67.969 H 99.805 C 99.937,66.928 100,66.147 100,65.625 Z"
   id="path3" />&#10;</g>&#10;</g></g><g
     transform="matrix(0.08,0,0,0.08,96,8)"
     id="g9"><g
       style="fill:#000000"
       id="g8">&#10;<g
   id="g7">&#10;	<path
   d="M 100,65.625 C 100,75.132 96.645,83.236 89.941,89.941 83.236,96.645 75.132,100 65.625,100 H 34.375 C 24.871,100 16.765,96.645 10.06,89.941 3.354,83.236 0,75.132 0,65.625 V 34.375 C 0,24.871 3.353,16.765 10.059,10.06 16.766,3.354 24.871,0 34.375,0 h 31.25 C 75.133,0 83.238,3.353 89.941,10.059 96.646,16.766 100,24.871 100,34.375 Z"
   id="path6" />&#10;</g>&#10;</g></g><g
     transform="matrix(0.08,0,0,0.08,112,8)"
     id="g11"><g
       style="fill:#000000"
       id="g10">&#10;<rect
   width="100"
   height="100"
   id="rect9"
   x="0"
   y="0" />&#10;</g></g><g
     transform="matrix(0.08,0,0,0.08,128,8)"
     id="g14"><g
       style="fill:#000000"
       id="g13">&#10;<g
   id="g12">&#10;	<path
   d="M 100,34.375 C 100,24.87 96.646,16.764 89.941,10.059 83.236,3.354 75.13,0 65.625,0 H 34.375 C 24.87,0 16.764,3.353 10.059,10.059 3.354,16.765 0,24.87 0,34.375 v 31.25 c 0,0.521 0.065,1.303 0.195,2.344 H 0 V 100 H 100 V 67.969 H 99.805 C 99.937,66.928 100,66.147 100,65.625 Z"
   id="path11" />&#10;</g>&#10;</g></g><g
     transform="matrix(0.08,0,0,0.08,64,16)"
     id="g16"><g
       style="fill:#000000"
       id="g15">&#10;<rect
   width="100"
   height="100"
   id="rect14"
   x="0"
   y="0" />&#10;</g></g><g
     transform="matrix(0.08,0,0,0.08,88,16)"
     id="g19"><g
       style="fill:#000000"
       id="g18">&#10;<g
   id="g17">&#10;	<path
   d="M 100,65.625 C 100,75.132 96.645,83.236 89.941,89.941 83.236,96.645 75.132,100 65.625,100 H 34.375 C 24.871,100 16.765,96.645 10.06,89.941 3.354,83.236 0,75.132 0,65.625 V 34.375 C 0,24.871 3.353,16.765 10.059,10.06 16.766,3.354 24.871,0 34.375,0 h 31.25 C 75.133,0 83.238,3.353 89.941,10.059 96.646,16.766 100,24.871 100,34.375 Z"
   id="path16" />&#10;</g>&#10;</g></g><g
     transform="matrix(0.08,0,0,0.08,112,16)"
     id="g21"><g
       style="fill:#000000"
       id="g20">&#10;<rect
   width="100"
   height="100"
   id="rect19"
   x="0"
   y="0" />&#10;</g></g><g
     transform="matrix(0.08,0,0,0.08,128,16)"
     id="g23"><g
       style="fill:#000000"
       id="g22">&#10;<rect
   width="100"
   height="100"
   id="rect21"
   x="0"
   y="0" />&#10;</g></g><g
     transform="matrix(0.08,0,0,0.08,64,24)"
     id="g26"><g
       style="fill:#000000"
       id="g25">&#10;<g
   id="g24">&#10;	<path
   d="M 99.805,32.031 H 100 V 0 H 0 V 32.031 H 0.195 C 0.065,33.073 0,33.854 0,34.375 v 31.25 C 0,75.13 3.353,83.236 10.059,89.941 16.765,96.646 24.87,100 34.375,100 h 31.25 C 75.13,100 83.236,96.646 89.941,89.941 96.646,83.236 100,75.13 100,65.625 v -31.25 c 0,-0.521 -0.063,-1.302 -0.195,-2.344 z"
   id="path23" />&#10;</g>&#10;</g></g><g
     transform="matrix(0.08,0,0,0.08,96,24)"
     id="g29"><g
       style="fill:#000000"
       id="g28">&#10;<g
   id="g27">&#10;	<path
   d="M 100,34.375 V 0 H 34.375 C 24.87,0 16.764,3.353 10.059,10.059 3.354,16.765 0,24.87 0,34.375 V 100 h 100 z"
   id="path26" />&#10;</g>&#10;</g></g><g
     transform="matrix(0.08,0,0,0.08,104,24)"
     id="g31"><g
       style="fill:#000000"
       id="g30">&#10;<rect
   width="100"
   height="100"
   id="rect29"
   x="0"
   y="0" />&#10;</g></g><g
     transform="matrix(0.08,0,0,0.08,112,24)"
     id="g33"><g
       style="fill:#000000"
       id="g32">&#10;<rect
   width="100"
   height="100"
   id="rect31"
   x="0"
   y="0" />&#10;</g></g><g
     transform="matrix(0.08,0,0,0.08,120,24)"
     id="g35"><g
       style="fill:#000000"
       id="g34">&#10;<rect
   width="100"
   height="100"
   id="rect33"
   x="0"
   y="0" />&#10;</g></g><g
     transform="matrix(0.08,0,0,0.08,128,24)"
     id="g37"><g
       style="fill:#000000"
       id="g36">&#10;<rect
   width="100"
   height="100"
   id="rect35"
   x="0"
   y="0" />&#10;</g></g><g
     transform="matrix(0.08,0,0,0.08,80,32)"
     id="g40"><g
       style="fill:#000000"
       id="g39">&#10;<g
   id="g38">&#10;	<path
   d="M 100,34.375 V 0 H 34.375 C 24.87,0 16.764,3.353 10.059,10.059 3.354,16.765 0,24.87 0,34.375 v 31.25 C 0,75.13 3.353,83.236 10.059,89.941 16.765,96.646 24.87,100 34.375,100 H 100 Z"
   id="path37" />&#10;</g>&#10;</g></g><g
     transform="matrix(0.08,0,0,0.08,88,32)"
     id="g42"><g
       style="fill:#000000"
       id="g41">&#10;<rect
   width="100"
   height="100"
   id="rect40"
   x="0"
   y="0" />&#10;</g></g><g
     transform="matrix(0.08,0,0,0.08,96,32)"
     id="g44"><g
       style="fill:#000000"
       id="g43">&#10;<rect
   width="100"
   height="100"
   id="rect42"
   x="0"
   y="0" />&#10;</g></g><g
     transform="matrix(0.08,0,0,0.08,104,32)"
     id="g46"><g
       style="fill:#000000"
       id="g45">&#10;<rect
   width="100"
   height="100"
   id="rect44"
   x="0"
   y="0" />&#10;</g></g><g
     transform="matrix(0.08,0,0,0.08,128,32)"
     id="g48"><g
       style="fill:#000000"
       id="g47">&#10;<rect
   width="100"
   height="100"
   id="rect46"
   x="0"
   y="0" />&#10;</g></g><g
     transform="matrix(0.08,0,0,0.08,72,40)"
     id="g51"><g
       style="fill:#000000"
       id="g50">&#10;<g
   id="g49">&#10;	<path
   d="M 100,65.625 C 100,75.132 96.645,83.236 89.941,89.941 83.236,96.645 75.132,100 65.625,100 H 34.375 C 24.871,100 16.765,96.645 10.06,89.941 3.354,83.236 0,75.132 0,65.625 V 34.375 C 0,24.871 3.353,16.765 10.059,10.06 16.766,3.354 24.871,0 34.375,0 h 31.25 C 75.133,0 83.238,3.353 89.941,10.059 96.646,16.766 100,24.871 100,34.375 Z"
   id="path48" />&#10;</g>&#10;</g></g><g
     transform="matrix(0.08,0,0,0.08,88,40)"
     id="g54"><g
       style="fill:#000000"
       id="g53">&#10;<g
   id="g52">&#10;	<path
   d="M 100,0 H 0 V 65.625 C 0,75.13 3.353,83.236 10.059,89.941 16.765,96.646 24.87,100 34.375,100 H 100 Z"
   id="path51" />&#10;</g>&#10;</g></g><g
     transform="matrix(0.08,0,0,0.08,96,40)"
     id="g56"><g
       style="fill:#000000"
       id="g55">&#10;<rect
   width="100"
   height="100"
   id="rect54"
   x="0"
   y="0" />&#10;</g></g><g
     transform="matrix(0.08,0,0,0.08,104,40)"
     id="g58"><g
       style="fill:#000000"
       id="g57">&#10;<rect
   width="100"
   height="100"
   id="rect56"
   x="0"
   y="0" />&#10;</g></g><g
     transform="matrix(0.08,0,0,0.08,112,40)"
     id="g61"><g
       style="fill:#000000"
       id="g60">&#10;<g
   id="g59">&#10;	<path
   d="M 100,34.375 C 100,24.87 96.646,16.764 89.941,10.059 83.236,3.354 75.13,0 65.625,0 H 0 v 100 h 100 z"
   id="path58" />&#10;</g>&#10;</g></g><g
     transform="matrix(0.08,0,0,0.08,128,40)"
     id="g63"><g
       style="fill:#000000"
       id="g62">&#10;<rect
   width="100"
   height="100"
   id="rect61"
   x="0"
   y="0" />&#10;</g></g><g
     transform="matrix(0.08,0,0,0.08,64,48)"
     id="g66"><g
       style="fill:#000000"
       id="g65">&#10;<g
   id="g64">&#10;	<path
   d="M 100,34.375 C 100,24.87 96.646,16.764 89.941,10.059 83.236,3.354 75.13,0 65.625,0 H 34.375 C 24.87,0 16.764,3.353 10.059,10.059 3.354,16.765 0,24.87 0,34.375 v 31.25 c 0,0.521 0.065,1.303 0.195,2.344 H 0 V 100 H 100 V 67.969 H 99.805 C 99.937,66.928 100,66.147 100,65.625 Z"
   id="path63" />&#10;</g>&#10;</g></g><g
     transform="matrix(0.08,0,0,0.08,80,48)"
     id="g69"><g
       style="fill:#000000"
       id="g68">&#10;<g
   id="g67">&#10;	<path
   d="M 100,34.375 C 100,24.87 96.646,16.764 89.941,10.059 83.236,3.354 75.13,0 65.625,0 H 34.375 C 24.87,0 16.764,3.353 10.059,10.059 3.354,16.765 0,24.87 0,34.375 v 31.25 c 0,0.521 0.065,1.303 0.195,2.344 H 0 V 100 H 100 V 67.969 H 99.805 C 99.937,66.928 100,66.147 100,65.625 Z"
   id="path66" />&#10;</g>&#10;</g></g><g
     transform="matrix(0.08,0,0,0.08,96,48)"
     id="g71"><g
       style="fill:#000000"
       id="g70">&#10;<rect
   width="100"
   height="100"
   id="rect69"
   x="0"
   y="0" />&#10;</g></g><g
     transform="matrix(0.08,0,0,0.08,112,48)"
     id="g73"><g
       style="fill:#000000"
       id="g72">&#10;<rect
   width="100"
   height="100"
   id="rect71"
   x="0"
   y="0" />&#10;</g></g><g
     transform="matrix(0.08,0,0,0.08,128,48)"
     id="g76"><g
       style="fill:#000000"
       id="g75">&#10;<g
   id="g74">&#10;	<path
   d="M 99.805,32.031 H 100 V 0 H 0 V 32.031 H 0.195 C 0.065,33.073 0,33.854 0,34.375 v 31.25 C 0,75.13 3.353,83.236 10.059,89.941 16.765,96.646 24.87,100 34.375,100 h 31.25 C 75.13,100 83.236,96.646 89.941,89.941 96.646,83.236 100,75.13 100,65.625 v -31.25 c 0,-0.521 -0.063,-1.302 -0.195,-2.344 z"
   id="path73" />&#10;</g>&#10;</g></g><g
     transform="matrix(0.08,0,0,0.08,64,56)"
     id="g78"><g
       style="fill:#000000"
       id="g77">&#10;<rect
   width="100"
   height="100"
   id="rect76"
   x="0"
   y="0" />&#10;</g></g><g
     transform="matrix(0.08,0,0,0.08,72,56)"
     id="g80"><g
       style="fill:#000000"
       id="g79">&#10;<rect
   width="100"
   height="100"
   id="rect78"
   x="0"
   y="0" />&#10;</g></g><g
     transform="matrix(0.08,0,0,0.08,80,56)"
     id="g82"><g
       style="fill:#000000"
       id="g81">&#10;<rect
   width="100"
   height="100"
   id="rect80"
   x="0"
   y="0" />&#10;</g></g><g
     transform="matrix(0.08,0,0,0.08,88,56)"
     id="g84"><g
       style="fill:#000000"
       id="g83">&#10;<rect
   width="100"
   height="100"
   id="rect82"
   x="0"
   y="0" />&#10;</g></g><g
     transform="matrix(0.08,0,0,0.08,96,56)"
     id="g87"><g
       style="fill:#000000"
       id="g86">&#10;<g
   id="g85">&#10;	<path
   d="M 100,0 H 0 V 100 H 65.625 C 75.13,100 83.236,96.646 89.941,89.941 96.646,83.236 100,75.13 100,65.625 Z"
   id="path84" />&#10;</g>&#10;</g></g><g
     transform="matrix(0.08,0,0,0.08,112,56)"
     id="g89"><g
       style="fill:#000000"
       id="g88">&#10;<rect
   width="100"
   height="100"
   id="rect87"
   x="0"
   y="0" />&#10;</g></g><g
     transform="matrix(0.08,0,0,0.08,120,56)"
     id="g92"><g
       style="fill:#000000"
       id="g91">&#10;<g
   id="g90">&#10;	<path
   d="M 100,34.375 C 100,24.87 96.646,16.764 89.941,10.059 83.236,3.354 75.13,0 65.625,0 H 0 v 100 h 100 z"
   id="path89" />&#10;</g>&#10;</g></g><g
     transform="matrix(0.08,0,0,0.08,0,64)"
     id="g95"><g
       style="fill:#000000"
       id="g94">&#10;<g
   id="g93">&#10;	<path
   d="M 100,34.375 C 100,24.87 96.646,16.764 89.941,10.059 83.236,3.354 75.13,0 65.625,0 H 34.375 C 24.87,0 16.764,3.353 10.059,10.059 3.354,16.765 0,24.87 0,34.375 v 31.25 c 0,0.521 0.065,1.303 0.195,2.344 H 0 V 100 H 100 V 67.969 H 99.805 C 99.937,66.928 100,66.147 100,65.625 Z"
   id="path92" />&#10;</g>&#10;</g></g><g
     transform="matrix(0.08,0,0,0.08,48,64)"
     id="g98"><g
       style="fill:#000000"
       id="g97">&#10;<g
   id="g96">&#10;	<path
   d="M 100,65.625 C 100,75.132 96.645,83.236 89.941,89.941 83.236,96.645 75.132,100 65.625,100 H 34.375 C 24.871,100 16.765,96.645 10.06,89.941 3.354,83.236 0,75.132 0,65.625 V 34.375 C 0,24.871 3.353,16.765 10.059,10.06 16.766,3.354 24.871,0 34.375,0 h 31.25 C 75.133,0 83.238,3.353 89.941,10.059 96.646,16.766 100,24.871 100,34.375 Z"
   id="path95" />&#10;</g>&#10;</g></g><g
     transform="matrix(0.08,0,0,0.08,64,64)"
     id="g100"><g
       style="fill:#000000"
       id="g99">&#10;<rect
   width="100"
   height="100"
   id="rect98"
   x="0"
   y="0" />&#10;</g></g><g
     transform="matrix(0.08,0,0,0.08,104,64)"
     id="g103"><g
       style="fill:#000000"
       id="g102">&#10;<g
   id="g101">&#10;	<path
   d="M 100,34.375 V 0 H 34.375 C 24.87,0 16.764,3.353 10.059,10.059 3.354,16.765 0,24.87 0,34.375 v 31.25 C 0,75.13 3.353,83.236 10.059,89.941 16.765,96.646 24.87,100 34.375,100 H 100 Z"
   id="path100" />&#10;</g>&#10;</g></g><g
     transform="matrix(0.08,0,0,0.08,112,64)"
     id="g105"><g
       style="fill:#000000"
       id="g104">&#10;<rect
   width="100"
   height="100"
   id="rect103"
   x="0"
   y="0" />&#10;</g></g><g
     transform="matrix(0.08,0,0,0.08,120,64)"
     id="g107"><g
       style="fill:#000000"
       id="g106">&#10;<rect
   width="100"
   height="100"
   id="rect105"
   x="0"
   y="0" />&#10;</g></g><g
     transform="matrix(0.08,0,0,0.08,136,64)"
     id="g110"><g
       style="fill:#000000"
       id="g109">&#10;<g
   id="g108">&#10;	<path
   d="M 100,34.375 V 0 H 34.375 C 24.87,0 16.764,3.353 10.059,10.059 3.354,16.765 0,24.87 0,34.375 v 31.25 C 0,75.13 3.353,83.236 10.059,89.941 16.765,96.646 24.87,100 34.375,100 H 100 Z"
   id="path107" />&#10;</g>&#10;</g></g><g
     transform="matrix(0.08,0,0,0.08,144,64)"
     id="g113"><g
       style="fill:#000000"
       id="g112">&#10;<g
   id="g111">&#10;	<path
   d="M 65.625,0 H 0 V 100 H 65.625 C 75.13,100 83.236,96.646 89.941,89.941 96.646,83.236 100,75.13 100,65.625 V 34.375 C 100,24.87 96.646,16.764 89.941,10.059 83.236,3.354 75.13,0 65.625,0 Z"
   id="path110" />&#10;</g>&#10;</g></g><g
     transform="matrix(0.08,0,0,0.08,168,64)"
     id="g116"><g
       style="fill:#000000"
       id="g115">&#10;<g
   id="g114">&#10;	<path
   d="M 100,34.375 V 0 H 34.375 C 24.87,0 16.764,3.353 10.059,10.059 3.354,16.765 0,24.87 0,34.375 V 100 h 100 z"
   id="path113" />&#10;</g>&#10;</g></g><g
     transform="matrix(0.08,0,0,0.08,176,64)"
     id="g118"><g
       style="fill:#000000"
       id="g117">&#10;<rect
   width="100"
   height="100"
   id="rect116"
   x="0"
   y="0" />&#10;</g></g><g
     transform="matrix(0.08,0,0,0.08,184,64)"
     id="g121"><g
       style="fill:#000000"
       id="g120">&#10;<g
   id="g119">&#10;	<path
   d="M 100,34.375 C 100,24.87 96.646,16.764 89.941,10.059 83.236,3.354 75.13,0 65.625,0 H 0 v 100 h 100 z"
   id="path118" />&#10;</g>&#10;</g></g><g
     transform="matrix(0.08,0,0,0.08,0,72)"
     id="g123"><g
       style="fill:#000000"
       id="g122">&#10;<rect
   width="100"
   height="100"
   id="rect121"
   x="0"
   y="0" />&#10;</g></g><g
     transform="matrix(0.08,0,0,0.08,16,72)"
     id="g126"><g
       style="fill:#000000"
       id="g125">&#10;<g
   id="g124">&#10;	<path
   d="M 100,34.375 V 0 H 34.375 C 24.87,0 16.764,3.353 10.059,10.059 3.354,16.765 0,24.87 0,34.375 V 100 h 100 z"
   id="path123" />&#10;</g>&#10;</g></g><g
     transform="matrix(0.08,0,0,0.08,24,72)"
     id="g128"><g
       style="fill:#000000"
       id="g127">&#10;<rect
   width="100"
   height="100"
   id="rect126"
   x="0"
   y="0" />&#10;</g></g><g
     transform="matrix(0.08,0,0,0.08,32,72)"
     id="g130"><g
       style="fill:#000000"
       id="g129">&#10;<rect
   width="100"
   height="100"
   id="rect128"
   x="0"
   y="0" />&#10;</g></g><g
     transform="matrix(0.08,0,0,0.08,40,72)"
     id="g133"><g
       style="fill:#000000"
       id="g132">&#10;<g
   id="g131">&#10;	<path
   d="M 65.625,0 H 0 V 100 H 65.625 C 75.13,100 83.236,96.646 89.941,89.941 96.646,83.236 100,75.13 100,65.625 V 34.375 C 100,24.87 96.646,16.764 89.941,10.059 83.236,3.354 75.13,0 65.625,0 Z"
   id="path130" />&#10;</g>&#10;</g></g><g
     transform="matrix(0.08,0,0,0.08,64,72)"
     id="g135"><g
       style="fill:#000000"
       id="g134">&#10;<rect
   width="100"
   height="100"
   id="rect133"
   x="0"
   y="0" />&#10;</g></g><g
     transform="matrix(0.08,0,0,0.08,72,72)"
     id="g138"><g
       style="fill:#000000"
       id="g137">&#10;<g
   id="g136">&#10;	<path
   d="M 65.625,0 H 0 V 100 H 65.625 C 75.13,100 83.236,96.646 89.941,89.941 96.646,83.236 100,75.13 100,65.625 V 34.375 C 100,24.87 96.646,16.764 89.941,10.059 83.236,3.354 75.13,0 65.625,0 Z"
   id="path135" />&#10;</g>&#10;</g></g><g
     transform="matrix(0.08,0,0,0.08,88,72)"
     id="g141"><g
       style="fill:#000000"
       id="g140">&#10;<g
   id="g139">&#10;	<path
   d="M 100,34.375 V 0 H 34.375 C 24.87,0 16.764,3.353 10.059,10.059 3.354,16.765 0,24.87 0,34.375 v 31.25 C 0,75.13 3.353,83.236 10.059,89.941 16.765,96.646 24.87,100 34.375,100 H 100 Z"
   id="path138" />&#10;</g>&#10;</g></g><g
     transform="matrix(0.08,0,0,0.08,96,72)"
     id="g144"><g
       style="fill:#000000"
       id="g143">&#10;<g
   id="g142">&#10;	<path
   d="M 65.625,0 H 0 V 100 H 65.625 C 75.13,100 83.236,96.646 89.941,89.941 96.646,83.236 100,75.13 100,65.625 V 34.375 C 100,24.87 96.646,16.764 89.941,10.059 83.236,3.354 75.13,0 65.625,0 Z"
   id="path141" />&#10;</g>&#10;</g></g><g
     transform="matrix(0.08,0,0,0.08,120,72)"
     id="g146"><g
       style="fill:#000000"
       id="g145">&#10;<rect
   width="100"
   height="100"
   id="rect144"
   x="0"
   y="0" />&#10;</g></g><g
     transform="matrix(0.08,0,0,0.08,152,72)"
     id="g149"><g
       style="fill:#000000"
       id="g148">&#10;<g
   id="g147">&#10;	<path
   d="M 100,34.375 V 0 H 34.375 C 24.87,0 16.764,3.353 10.059,10.059 3.354,16.765 0,24.87 0,34.375 V 100 h 100 z"
   id="path146" />&#10;</g>&#10;</g></g><g
     transform="matrix(0.08,0,0,0.08,160,72)"
     id="g151"><g
       style="fill:#000000"
       id="g150">&#10;<rect
   width="100"
   height="100"
   id="rect149"
   x="0"
   y="0" />&#10;</g></g><g
     transform="matrix(0.08,0,0,0.08,168,72)"
     id="g153"><g
       style="fill:#000000"
       id="g152">&#10;<rect
   width="100"
   height="100"
   id="rect151"
   x="0"
   y="0" />&#10;</g></g><g
     transform="matrix(0.08,0,0,0.08,176,72)"
     id="g155"><g
       style="fill:#000000"
       id="g154">&#10;<rect
   width="100"
   height="100"
   id="rect153"
   x="0"
   y="0" />&#10;</g></g><g
     transform="matrix(0.08,0,0,0.08,184,72)"
     id="g157"><g
       style="fill:#000000"
       id="g156">&#10;<rect
   width="100"
   height="100"
   id="rect155"
   x="0"
   y="0" />&#10;</g></g><g
     transform="matrix(0.08,0,0,0.08,0,80)"
     id="g159"><g
       style="fill:#000000"
       id="g158">&#10;<rect
   width="100"
   height="100"
   id="rect157"
   x="0"
   y="0" />&#10;</g></g><g
     transform="matrix(0.08,0,0,0.08,16,80)"
     id="g162"><g
       style="fill:#000000"
       id="g161">&#10;<g
   id="g160">&#10;	<path
   d="M 99.805,32.031 H 100 V 0 H 0 V 32.031 H 0.195 C 0.065,33.073 0,33.854 0,34.375 v 31.25 C 0,75.13 3.353,83.236 10.059,89.941 16.765,96.646 24.87,100 34.375,100 h 31.25 C 75.13,100 83.236,96.646 89.941,89.941 96.646,83.236 100,75.13 100,65.625 v -31.25 c 0,-0.521 -0.063,-1.302 -0.195,-2.344 z"
   id="path159" />&#10;</g>&#10;</g></g><g
     transform="matrix(0.08,0,0,0.08,32,80)"
     id="g164"><g
       style="fill:#000000"
       id="g163">&#10;<rect
   width="100"
   height="100"
   id="rect162"
   x="0"
   y="0" />&#10;</g></g><g
     transform="matrix(0.08,0,0,0.08,48,80)"
     id="g167"><g
       style="fill:#000000"
       id="g166">&#10;<g
   id="g165">&#10;	<path
   d="M 100,65.625 C 100,75.132 96.645,83.236 89.941,89.941 83.236,96.645 75.132,100 65.625,100 H 34.375 C 24.871,100 16.765,96.645 10.06,89.941 3.354,83.236 0,75.132 0,65.625 V 34.375 C 0,24.871 3.353,16.765 10.059,10.06 16.766,3.354 24.871,0 34.375,0 h 31.25 C 75.133,0 83.238,3.353 89.941,10.059 96.646,16.766 100,24.871 100,34.375 Z"
   id="path164" />&#10;</g>&#10;</g></g><g
     transform="matrix(0.08,0,0,0.08,64,80)"
     id="g170"><g
       style="fill:#000000"
       id="g169">&#10;<g
   id="g168">&#10;	<path
   d="M 99.805,32.031 H 100 V 0 H 0 V 32.031 H 0.195 C 0.065,33.073 0,33.854 0,34.375 v 31.25 C 0,75.13 3.353,83.236 10.059,89.941 16.765,96.646 24.87,100 34.375,100 h 31.25 C 75.13,100 83.236,96.646 89.941,89.941 96.646,83.236 100,75.13 100,65.625 v -31.25 c 0,-0.521 -0.063,-1.302 -0.195,-2.344 z"
   id="path167" />&#10;</g>&#10;</g></g><g
     transform="matrix(0.08,0,0,0.08,80,80)"
     id="g173"><g
       style="fill:#000000"
       id="g172">&#10;<g
   id="g171">&#10;	<path
   d="M 100,34.375 C 100,24.87 96.646,16.764 89.941,10.059 83.236,3.354 75.13,0 65.625,0 H 34.375 C 24.87,0 16.764,3.353 10.059,10.059 3.354,16.765 0,24.87 0,34.375 v 31.25 c 0,0.521 0.065,1.303 0.195,2.344 H 0 V 100 H 100 V 67.969 H 99.805 C 99.937,66.928 100,66.147 100,65.625 Z"
   id="path170" />&#10;</g>&#10;</g></g><g
     transform="matrix(0.08,0,0,0.08,104,80)"
     id="g176"><g
       style="fill:#000000"
       id="g175">&#10;<g
   id="g174">&#10;	<path
   d="M 100,65.625 C 100,75.132 96.645,83.236 89.941,89.941 83.236,96.645 75.132,100 65.625,100 H 34.375 C 24.871,100 16.765,96.645 10.06,89.941 3.354,83.236 0,75.132 0,65.625 V 34.375 C 0,24.871 3.353,16.765 10.059,10.06 16.766,3.354 24.871,0 34.375,0 h 31.25 C 75.133,0 83.238,3.353 89.941,10.059 96.646,16.766 100,24.871 100,34.375 Z"
   id="path173" />&#10;</g>&#10;</g></g><g
     transform="matrix(0.08,0,0,0.08,120,80)"
     id="g178"><g
       style="fill:#000000"
       id="g177">&#10;<rect
   width="100"
   height="100"
   id="rect176"
   x="0"
   y="0" />&#10;</g></g><g
     transform="matrix(0.08,0,0,0.08,152,80)"
     id="g180"><g
       style="fill:#000000"
       id="g179">&#10;<rect
   width="100"
   height="100"
   id="rect178"
   x="0"
   y="0" />&#10;</g></g><g
     transform="matrix(0.08,0,0,0.08,160,80)"
     id="g182"><g
       style="fill:#000000"
       id="g181">&#10;<rect
   width="100"
   height="100"
   id="rect180"
   x="0"
   y="0" />&#10;</g></g><g
     transform="matrix(0.08,0,0,0.08,168,80)"
     id="g184"><g
       style="fill:#000000"
       id="g183">&#10;<rect
   width="100"
   height="100"
   id="rect182"
   x="0"
   y="0" />&#10;</g></g><g
     transform="matrix(0.08,0,0,0.08,184,80)"
     id="g187"><g
       style="fill:#000000"
       id="g186">&#10;<g
   id="g185">&#10;	<path
   d="M 100,0 H 0 V 65.625 C 0,75.13 3.353,83.236 10.059,89.941 16.765,96.646 24.87,100 34.375,100 H 100 Z"
   id="path184" />&#10;</g>&#10;</g></g><g
     transform="matrix(0.08,0,0,0.08,192,80)"
     id="g190"><g
       style="fill:#000000"
       id="g189">&#10;<g
   id="g188">&#10;	<path
   d="M 100,34.375 C 100,24.87 96.646,16.764 89.941,10.059 83.236,3.354 75.13,0 65.625,0 H 0 v 100 h 100 z"
   id="path187" />&#10;</g>&#10;</g></g><g
     transform="matrix(0.08,0,0,0.08,0,88)"
     id="g193"><g
       style="fill:#000000"
       id="g192">&#10;<g
   id="g191">&#10;	<path
   d="M 99.805,32.031 H 100 V 0 H 0 V 32.031 H 0.195 C 0.065,33.073 0,33.854 0,34.375 v 31.25 C 0,75.13 3.353,83.236 10.059,89.941 16.765,96.646 24.87,100 34.375,100 h 31.25 C 75.13,100 83.236,96.646 89.941,89.941 96.646,83.236 100,75.13 100,65.625 v -31.25 c 0,-0.521 -0.063,-1.302 -0.195,-2.344 z"
   id="path190" />&#10;</g>&#10;</g></g><g
     transform="matrix(0.08,0,0,0.08,32,88)"
     id="g195"><g
       style="fill:#000000"
       id="g194">&#10;<rect
   width="100"
   height="100"
   id="rect193"
   x="0"
   y="0" />&#10;</g></g><g
     transform="matrix(0.08,0,0,0.08,56,88)"
     id="g198"><g
       style="fill:#000000"
       id="g197">&#10;<g
   id="g196">&#10;	<path
   d="M 100,34.375 C 100,24.87 96.646,16.764 89.941,10.059 83.236,3.354 75.13,0 65.625,0 H 34.375 C 24.87,0 16.764,3.353 10.059,10.059 3.354,16.765 0,24.87 0,34.375 v 31.25 c 0,0.521 0.065,1.303 0.195,2.344 H 0 V 100 H 100 V 67.969 H 99.805 C 99.937,66.928 100,66.147 100,65.625 Z"
   id="path195" />&#10;</g>&#10;</g></g><g
     transform="matrix(0.08,0,0,0.08,80,88)"
     id="g200"><g
       style="fill:#000000"
       id="g199">&#10;<rect
   width="100"
   height="100"
   id="rect198"
   x="0"
   y="0" />&#10;</g></g><g
     transform="matrix(0.08,0,0,0.08,88,88)"
     id="g202"><g
       style="fill:#000000"
       id="g201">&#10;<rect
   width="100"
   height="100"
   id="rect200"
   x="0"
   y="0" />&#10;</g></g><g
     transform="matrix(0.08,0,0,0.08,96,88)"
     id="g205"><g
       style="fill:#000000"
       id="g204">&#10;<g
   id="g203">&#10;	<path
   d="M 100,34.375 C 100,24.87 96.646,16.764 89.941,10.059 83.236,3.354 75.13,0 65.625,0 H 0 v 100 h 100 z"
   id="path202" />&#10;</g>&#10;</g></g><g
     transform="matrix(0.08,0,0,0.08,112,88)"
     id="g208"><g
       style="fill:#000000"
       id="g207">&#10;<g
   id="g206">&#10;	<path
   d="M 100,34.375 V 0 H 34.375 C 24.87,0 16.764,3.353 10.059,10.059 3.354,16.765 0,24.87 0,34.375 v 31.25 C 0,75.13 3.353,83.236 10.059,89.941 16.765,96.646 24.87,100 34.375,100 H 100 Z"
   id="path205" />&#10;</g>&#10;</g></g><g
     transform="matrix(0.08,0,0,0.08,120,88)"
     id="g210"><g
       style="fill:#000000"
       id="g209">&#10;<rect
   width="100"
   height="100"
   id="rect208"
   x="0"
   y="0" />&#10;</g></g><g
     transform="matrix(0.08,0,0,0.08,128,88)"
     id="g212"><g
       style="fill:#000000"
       id="g211">&#10;<rect
   width="100"
   height="100"
   id="rect210"
   x="0"
   y="0" />&#10;</g></g><g
     transform="matrix(0.08,0,0,0.08,136,88)"
     id="g214"><g
       style="fill:#000000"
       id="g213">&#10;<rect
   width="100"
   height="100"
   id="rect212"
   x="0"
   y="0" />&#10;</g></g><g
     transform="matrix(0.08,0,0,0.08,144,88)"
     id="g216"><g
       style="fill:#000000"
       id="g215">&#10;<rect
   width="100"
   height="100"
   id="rect214"
   x="0"
   y="0" />&#10;</g></g><g
     transform="matrix(0.08,0,0,0.08,152,88)"
     id="g218"><g
       style="fill:#000000"
       id="g217">&#10;<rect
   width="100"
   height="100"
   id="rect216"
   x="0"
   y="0" />&#10;</g></g><g
     transform="matrix(0.08,0,0,0.08,168,88)"
     id="g221"><g
       style="fill:#000000"
       id="g220">&#10;<g
   id="g219">&#10;	<path
   d="M 99.805,32.031 H 100 V 0 H 0 V 32.031 H 0.195 C 0.065,33.073 0,33.854 0,34.375 v 31.25 C 0,75.13 3.353,83.236 10.059,89.941 16.765,96.646 24.87,100 34.375,100 h 31.25 C 75.13,100 83.236,96.646 89.941,89.941 96.646,83.236 100,75.13 100,65.625 v -31.25 c 0,-0.521 -0.063,-1.302 -0.195,-2.344 z"
   id="path218" />&#10;</g>&#10;</g></g><g
     transform="matrix(0.08,0,0,0.08,192,88)"
     id="g223"><g
       style="fill:#000000"
       id="g222">&#10;<rect
   width="100"
   height="100"
   id="rect221"
   x="0"
   y="0" />&#10;</g></g><g
     transform="matrix(0.08,0,0,0.08,8,96)"
     id="g226"><g
       style="fill:#000000"
       id="g225">&#10;<g
   id="g224">&#10;	<path
   d="M 100,34.375 C 100,24.87 96.646,16.764 89.941,10.059 83.236,3.354 75.13,0 65.625,0 H 34.375 C 24.87,0 16.764,3.353 10.059,10.059 3.354,16.765 0,24.87 0,34.375 v 31.25 c 0,0.521 0.065,1.303 0.195,2.344 H 0 V 100 H 100 V 67.969 H 99.805 C 99.937,66.928 100,66.147 100,65.625 Z"
   id="path223" />&#10;</g>&#10;</g></g><g
     transform="matrix(0.08,0,0,0.08,32,96)"
     id="g229"><g
       style="fill:#000000"
       id="g228">&#10;<g
   id="g227">&#10;	<path
   d="M 99.805,32.031 H 100 V 0 H 0 V 32.031 H 0.195 C 0.065,33.073 0,33.854 0,34.375 v 31.25 C 0,75.13 3.353,83.236 10.059,89.941 16.765,96.646 24.87,100 34.375,100 h 31.25 C 75.13,100 83.236,96.646 89.941,89.941 96.646,83.236 100,75.13 100,65.625 v -31.25 c 0,-0.521 -0.063,-1.302 -0.195,-2.344 z"
   id="path226" />&#10;</g>&#10;</g></g><g
     transform="matrix(0.08,0,0,0.08,48,96)"
     id="g232"><g
       style="fill:#000000"
       id="g231">&#10;<g
   id="g230">&#10;	<path
   d="M 100,34.375 V 0 H 34.375 C 24.87,0 16.764,3.353 10.059,10.059 3.354,16.765 0,24.87 0,34.375 v 31.25 C 0,75.13 3.353,83.236 10.059,89.941 16.765,96.646 24.87,100 34.375,100 H 100 Z"
   id="path229" />&#10;</g>&#10;</g></g><g
     transform="matrix(0.08,0,0,0.08,56,96)"
     id="g234"><g
       style="fill:#000000"
       id="g233">&#10;<rect
   width="100"
   height="100"
   id="rect232"
   x="0"
   y="0" />&#10;</g></g><g
     transform="matrix(0.08,0,0,0.08,80,96)"
     id="g236"><g
       style="fill:#000000"
       id="g235">&#10;<rect
   width="100"
   height="100"
   id="rect234"
   x="0"
   y="0" />&#10;</g></g><g
     transform="matrix(0.08,0,0,0.08,88,96)"
     id="g238"><g
       style="fill:#000000"
       id="g237">&#10;<rect
   width="100"
   height="100"
   id="rect236"
   x="0"
   y="0" />&#10;</g></g><g
     transform="matrix(0.08,0,0,0.08,96,96)"
     id="g240"><g
       style="fill:#000000"
       id="g239">&#10;<rect
   width="100"
   height="100"
   id="rect238"
   x="0"
   y="0" />&#10;</g></g><g
     transform="matrix(0.08,0,0,0.08,128,96)"
     id="g243"><g
       style="fill:#000000"
       id="g242">&#10;<g
   id="g241">&#10;	<path
   d="M 99.805,32.031 H 100 V 0 H 0 V 32.031 H 0.195 C 0.065,33.073 0,33.854 0,34.375 v 31.25 C 0,75.13 3.353,83.236 10.059,89.941 16.765,96.646 24.87,100 34.375,100 h 31.25 C 75.13,100 83.236,96.646 89.941,89.941 96.646,83.236 100,75.13 100,65.625 v -31.25 c 0,-0.521 -0.063,-1.302 -0.195,-2.344 z"
   id="path240" />&#10;</g>&#10;</g></g><g
     transform="matrix(0.08,0,0,0.08,144,96)"
     id="g246"><g
       style="fill:#000000"
       id="g245">&#10;<g
   id="g244">&#10;	<path
   d="M 100,0 H 0 V 65.625 C 0,75.13 3.353,83.236 10.059,89.941 16.765,96.646 24.87,100 34.375,100 H 100 Z"
   id="path243" />&#10;</g>&#10;</g></g><g
     transform="matrix(0.08,0,0,0.08,152,96)"
     id="g248"><g
       style="fill:#000000"
       id="g247">&#10;<rect
   width="100"
   height="100"
   id="rect246"
   x="0"
   y="0" />&#10;</g></g><g
     transform="matrix(0.08,0,0,0.08,192,96)"
     id="g251"><g
       style="fill:#000000"
       id="g250">&#10;<g
   id="g249">&#10;	<path
   d="M 99.805,32.031 H 100 V 0 H 0 V 32.031 H 0.195 C 0.065,33.073 0,33.854 0,34.375 v 31.25 C 0,75.13 3.353,83.236 10.059,89.941 16.765,96.646 24.87,100 34.375,100 h 31.25 C 75.13,100 83.236,96.646 89.941,89.941 96.646,83.236 100,75.13 100,65.625 v -31.25 c 0,-0.521 -0.063,-1.302 -0.195,-2.344 z"
   id="path248" />&#10;</g>&#10;</g></g><g
     transform="matrix(0.08,0,0,0.08,0,104)"
     id="g254"><g
       style="fill:#000000"
       id="g253">&#10;<g
   id="g252">&#10;	<path
   d="M 100,34.375 V 0 H 34.375 C 24.87,0 16.764,3.353 10.059,10.059 3.354,16.765 0,24.87 0,34.375 V 100 h 100 z"
   id="path251" />&#10;</g>&#10;</g></g><g
     transform="matrix(0.08,0,0,0.08,8,104)"
     id="g256"><g
       style="fill:#000000"
       id="g255">&#10;<rect
   width="100"
   height="100"
   id="rect254"
   x="0"
   y="0" />&#10;</g></g><g
     transform="matrix(0.08,0,0,0.08,16,104)"
     id="g258"><g
       style="fill:#000000"
       id="g257">&#10;<rect
   width="100"
   height="100"
   id="rect256"
   x="0"
   y="0" />&#10;</g></g><g
     transform="matrix(0.08,0,0,0.08,24,104)"
     id="g261"><g
       style="fill:#000000"
       id="g260">&#10;<g
   id="g259">&#10;	<path
   d="M 65.625,0 H 0 V 100 H 65.625 C 75.13,100 83.236,96.646 89.941,89.941 96.646,83.236 100,75.13 100,65.625 V 34.375 C 100,24.87 96.646,16.764 89.941,10.059 83.236,3.354 75.13,0 65.625,0 Z"
   id="path258" />&#10;</g>&#10;</g></g><g
     transform="matrix(0.08,0,0,0.08,56,104)"
     id="g264"><g
       style="fill:#000000"
       id="g263">&#10;<g
   id="g262">&#10;	<path
   d="M 99.805,32.031 H 100 V 0 H 0 V 32.031 H 0.195 C 0.065,33.073 0,33.854 0,34.375 v 31.25 C 0,75.13 3.353,83.236 10.059,89.941 16.765,96.646 24.87,100 34.375,100 h 31.25 C 75.13,100 83.236,96.646 89.941,89.941 96.646,83.236 100,75.13 100,65.625 v -31.25 c 0,-0.521 -0.063,-1.302 -0.195,-2.344 z"
   id="path261" />&#10;</g>&#10;</g></g><g
     transform="matrix(0.08,0,0,0.08,72,104)"
     id="g267"><g
       style="fill:#000000"
       id="g266">&#10;<g
   id="g265">&#10;	<path
   d="M 100,34.375 V 0 H 34.375 C 24.87,0 16.764,3.353 10.059,10.059 3.354,16.765 0,24.87 0,34.375 v 31.25 C 0,75.13 3.353,83.236 10.059,89.941 16.765,96.646 24.87,100 34.375,100 H 100 Z"
   id="path264" />&#10;</g>&#10;</g></g><g
     transform="matrix(0.08,0,0,0.08,80,104)"
     id="g270"><g
       style="fill:#000000"
       id="g269">&#10;<g
   id="g268">&#10;	<path
   d="M 100,0 H 0 V 100 H 65.625 C 75.13,100 83.236,96.646 89.941,89.941 96.646,83.236 100,75.13 100,65.625 Z"
   id="path267" />&#10;</g>&#10;</g></g><g
     transform="matrix(0.08,0,0,0.08,96,104)"
     id="g272"><g
       style="fill:#000000"
       id="g271">&#10;<rect
   width="100"
   height="100"
   id="rect270"
   x="0"
   y="0" />&#10;</g></g><g
     transform="matrix(0.08,0,0,0.08,104,104)"
     id="g275"><g
       style="fill:#000000"
       id="g274">&#10;<g
   id="g273">&#10;	<path
   d="M 65.625,0 H 0 V 100 H 65.625 C 75.13,100 83.236,96.646 89.941,89.941 96.646,83.236 100,75.13 100,65.625 V 34.375 C 100,24.87 96.646,16.764 89.941,10.059 83.236,3.354 75.13,0 65.625,0 Z"
   id="path272" />&#10;</g>&#10;</g></g><g
     transform="matrix(0.08,0,0,0.08,120,104)"
     id="g278"><g
       style="fill:#000000"
       id="g277">&#10;<g
   id="g276">&#10;	<path
   d="M 100,34.375 C 100,24.87 96.646,16.764 89.941,10.059 83.236,3.354 75.13,0 65.625,0 H 34.375 C 24.87,0 16.764,3.353 10.059,10.059 3.354,16.765 0,24.87 0,34.375 v 31.25 c 0,0.521 0.065,1.303 0.195,2.344 H 0 V 100 H 100 V 67.969 H 99.805 C 99.937,66.928 100,66.147 100,65.625 Z"
   id="path275" />&#10;</g>&#10;</g></g><g
     transform="matrix(0.08,0,0,0.08,136,104)"
     id="g281"><g
       style="fill:#000000"
       id="g280">&#10;<g
   id="g279">&#10;	<path
   d="M 100,34.375 C 100,24.87 96.646,16.764 89.941,10.059 83.236,3.354 75.13,0 65.625,0 H 34.375 C 24.87,0 16.764,3.353 10.059,10.059 3.354,16.765 0,24.87 0,34.375 v 31.25 c 0,0.521 0.065,1.303 0.195,2.344 H 0 V 100 H 100 V 67.969 H 99.805 C 99.937,66.928 100,66.147 100,65.625 Z"
   id="path278" />&#10;</g>&#10;</g></g><g
     transform="matrix(0.08,0,0,0.08,152,104)"
     id="g283"><g
       style="fill:#000000"
       id="g282">&#10;<rect
   width="100"
   height="100"
   id="rect281"
   x="0"
   y="0" />&#10;</g></g><g
     transform="matrix(0.08,0,0,0.08,184,104)"
     id="g286"><g
       style="fill:#000000"
       id="g285">&#10;<g
   id="g284">&#10;	<path
   d="M 100,34.375 C 100,24.87 96.646,16.764 89.941,10.059 83.236,3.354 75.13,0 65.625,0 H 34.375 C 24.87,0 16.764,3.353 10.059,10.059 3.354,16.765 0,24.87 0,34.375 v 31.25 c 0,0.521 0.065,1.303 0.195,2.344 H 0 V 100 H 100 V 67.969 H 99.805 C 99.937,66.928 100,66.147 100,65.625 Z"
   id="path283" />&#10;</g>&#10;</g></g><g
     transform="matrix(0.08,0,0,0.08,0,112)"
     id="g288"><g
       style="fill:#000000"
       id="g287">&#10;<rect
   width="100"
   height="100"
   id="rect286"
   x="0"
   y="0" />&#10;</g></g><g
     transform="matrix(0.08,0,0,0.08,16,112)"
     id="g291"><g
       style="fill:#000000"
       id="g290">&#10;<g
   id="g289">&#10;	<path
   d="M 99.805,32.031 H 100 V 0 H 0 V 32.031 H 0.195 C 0.065,33.073 0,33.854 0,34.375 v 31.25 C 0,75.13 3.353,83.236 10.059,89.941 16.765,96.646 24.87,100 34.375,100 h 31.25 C 75.13,100 83.236,96.646 89.941,89.941 96.646,83.236 100,75.13 100,65.625 v -31.25 c 0,-0.521 -0.063,-1.302 -0.195,-2.344 z"
   id="path288" />&#10;</g>&#10;</g></g><g
     transform="matrix(0.08,0,0,0.08,40,112)"
     id="g294"><g
       style="fill:#000000"
       id="g293">&#10;<g
   id="g292">&#10;	<path
   d="M 100,34.375 V 0 H 34.375 C 24.87,0 16.764,3.353 10.059,10.059 3.354,16.765 0,24.87 0,34.375 v 31.25 C 0,75.13 3.353,83.236 10.059,89.941 16.765,96.646 24.87,100 34.375,100 H 100 Z"
   id="path291" />&#10;</g>&#10;</g></g><g
     transform="matrix(0.08,0,0,0.08,48,112)"
     id="g297"><g
       style="fill:#000000"
       id="g296">&#10;<g
   id="g295">&#10;	<path
   d="M 65.625,0 H 0 V 100 H 65.625 C 75.13,100 83.236,96.646 89.941,89.941 96.646,83.236 100,75.13 100,65.625 V 34.375 C 100,24.87 96.646,16.764 89.941,10.059 83.236,3.354 75.13,0 65.625,0 Z"
   id="path294" />&#10;</g>&#10;</g></g><g
     transform="matrix(0.08,0,0,0.08,96,112)"
     id="g299"><g
       style="fill:#000000"
       id="g298">&#10;<rect
   width="100"
   height="100"
   id="rect297"
   x="0"
   y="0" />&#10;</g></g><g
     transform="matrix(0.08,0,0,0.08,120,112)"
     id="g301"><g
       style="fill:#000000"
       id="g300">&#10;<rect
   width="100"
   height="100"
   id="rect299"
   x="0"
   y="0" />&#10;</g></g><g
     transform="matrix(0.08,0,0,0.08,136,112)"
     id="g304"><g
       style="fill:#000000"
       id="g303">&#10;<g
   id="g302">&#10;	<path
   d="M 100,0 H 0 V 65.625 C 0,75.13 3.353,83.236 10.059,89.941 16.765,96.646 24.87,100 34.375,100 H 100 Z"
   id="path301" />&#10;</g>&#10;</g></g><g
     transform="matrix(0.08,0,0,0.08,144,112)"
     id="g306"><g
       style="fill:#000000"
       id="g305">&#10;<rect
   width="100"
   height="100"
   id="rect304"
   x="0"
   y="0" />&#10;</g></g><g
     transform="matrix(0.08,0,0,0.08,152,112)"
     id="g308"><g
       style="fill:#000000"
       id="g307">&#10;<rect
   width="100"
   height="100"
   id="rect306"
   x="0"
   y="0" />&#10;</g></g><g
     transform="matrix(0.08,0,0,0.08,160,112)"
     id="g310"><g
       style="fill:#000000"
       id="g309">&#10;<rect
   width="100"
   height="100"
   id="rect308"
   x="0"
   y="0" />&#10;</g></g><g
     transform="matrix(0.08,0,0,0.08,168,112)"
     id="g313"><g
       style="fill:#000000"
       id="g312">&#10;<g
   id="g311">&#10;	<path
   d="M 100,34.375 C 100,24.87 96.646,16.764 89.941,10.059 83.236,3.354 75.13,0 65.625,0 H 0 v 100 h 100 z"
   id="path310" />&#10;</g>&#10;</g></g><g
     transform="matrix(0.08,0,0,0.08,184,112)"
     id="g316"><g
       style="fill:#000000"
       id="g315">&#10;<g
   id="g314">&#10;	<path
   d="M 100,0 H 0 V 65.625 C 0,75.13 3.353,83.236 10.059,89.941 16.765,96.646 24.87,100 34.375,100 H 100 Z"
   id="path313" />&#10;</g>&#10;</g></g><g
     transform="matrix(0.08,0,0,0.08,192,112)"
     id="g319"><g
       style="fill:#000000"
       id="g318">&#10;<g
   id="g317">&#10;	<path
   d="M 100,34.375 C 100,24.87 96.646,16.764 89.941,10.059 83.236,3.354 75.13,0 65.625,0 H 0 v 100 h 100 z"
   id="path316" />&#10;</g>&#10;</g></g><g
     transform="matrix(0.08,0,0,0.08,0,120)"
     id="g321"><g
       style="fill:#000000"
       id="g320">&#10;<rect
   width="100"
   height="100"
   id="rect319"
   x="0"
   y="0" />&#10;</g></g><g
     transform="matrix(0.08,0,0,0.08,24,120)"
     id="g324"><g
       style="fill:#000000"
       id="g323">&#10;<g
   id="g322">&#10;	<path
   d="M 100,34.375 V 0 H 34.375 C 24.87,0 16.764,3.353 10.059,10.059 3.354,16.765 0,24.87 0,34.375 v 31.25 C 0,75.13 3.353,83.236 10.059,89.941 16.765,96.646 24.87,100 34.375,100 H 100 Z"
   id="path321" />&#10;</g>&#10;</g></g><g
     transform="matrix(0.08,0,0,0.08,32,120)"
     id="g327"><g
       style="fill:#000000"
       id="g326">&#10;<g
   id="g325">&#10;	<path
   d="M 100,34.375 C 100,24.87 96.646,16.764 89.941,10.059 83.236,3.354 75.13,0 65.625,0 H 0 v 100 h 100 z"
   id="path324" />&#10;</g>&#10;</g></g><g
     transform="matrix(0.08,0,0,0.08,56,120)"
     id="g330"><g
       style="fill:#000000"
       id="g329">&#10;<g
   id="g328">&#10;	<path
   d="M 100,34.375 C 100,24.87 96.646,16.764 89.941,10.059 83.236,3.354 75.13,0 65.625,0 H 34.375 C 24.87,0 16.764,3.353 10.059,10.059 3.354,16.765 0,24.87 0,34.375 v 31.25 c 0,0.521 0.065,1.303 0.195,2.344 H 0 V 100 H 100 V 67.969 H 99.805 C 99.937,66.928 100,66.147 100,65.625 Z"
   id="path327" />&#10;</g>&#10;</g></g><g
     transform="matrix(0.08,0,0,0.08,80,120)"
     id="g333"><g
       style="fill:#000000"
       id="g332">&#10;<g
   id="g331">&#10;	<path
   d="M 100,34.375 V 0 H 34.375 C 24.87,0 16.764,3.353 10.059,10.059 3.354,16.765 0,24.87 0,34.375 V 100 h 100 z"
   id="path330" />&#10;</g>&#10;</g></g><g
     transform="matrix(0.08,0,0,0.08,88,120)"
     id="g335"><g
       style="fill:#000000"
       id="g334">&#10;<rect
   width="100"
   height="100"
   id="rect333"
   x="0"
   y="0" />&#10;</g></g><g
     transform="matrix(0.08,0,0,0.08,96,120)"
     id="g338"><g
       style="fill:#000000"
       id="g337">&#10;<g
   id="g336">&#10;	<path
   d="M 100,0 H 0 V 100 H 65.625 C 75.13,100 83.236,96.646 89.941,89.941 96.646,83.236 100,75.13 100,65.625 Z"
   id="path335" />&#10;</g>&#10;</g></g><g
     transform="matrix(0.08,0,0,0.08,112,120)"
     id="g341"><g
       style="fill:#000000"
       id="g340">&#10;<g
   id="g339">&#10;	<path
   d="M 100,34.375 V 0 H 34.375 C 24.87,0 16.764,3.353 10.059,10.059 3.354,16.765 0,24.87 0,34.375 V 100 h 100 z"
   id="path338" />&#10;</g>&#10;</g></g><g
     transform="matrix(0.08,0,0,0.08,120,120)"
     id="g343"><g
       style="fill:#000000"
       id="g342">&#10;<rect
   width="100"
   height="100"
   id="rect341"
   x="0"
   y="0" />&#10;</g></g><g
     transform="matrix(0.08,0,0,0.08,128,120)"
     id="g346"><g
       style="fill:#000000"
       id="g345">&#10;<g
   id="g344">&#10;	<path
   d="M 100,34.375 C 100,24.87 96.646,16.764 89.941,10.059 83.236,3.354 75.13,0 65.625,0 H 0 v 100 h 100 z"
   id="path343" />&#10;</g>&#10;</g></g><g
     transform="matrix(0.08,0,0,0.08,144,120)"
     id="g348"><g
       style="fill:#000000"
       id="g347">&#10;<rect
   width="100"
   height="100"
   id="rect346"
   x="0"
   y="0" />&#10;</g></g><g
     transform="matrix(0.08,0,0,0.08,152,120)"
     id="g350"><g
       style="fill:#000000"
       id="g349">&#10;<rect
   width="100"
   height="100"
   id="rect348"
   x="0"
   y="0" />&#10;</g></g><g
     transform="matrix(0.08,0,0,0.08,168,120)"
     id="g353"><g
       style="fill:#000000"
       id="g352">&#10;<g
   id="g351">&#10;	<path
   d="M 100,0 H 0 V 65.625 C 0,75.13 3.353,83.236 10.059,89.941 16.765,96.646 24.87,100 34.375,100 H 100 Z"
   id="path350" />&#10;</g>&#10;</g></g><g
     transform="matrix(0.08,0,0,0.08,176,120)"
     id="g356"><g
       style="fill:#000000"
       id="g355">&#10;<g
   id="g354">&#10;	<path
   d="M 100,34.375 C 100,24.87 96.646,16.764 89.941,10.059 83.236,3.354 75.13,0 65.625,0 H 0 v 100 h 100 z"
   id="path353" />&#10;</g>&#10;</g></g><g
     transform="matrix(0.08,0,0,0.08,192,120)"
     id="g359"><g
       style="fill:#000000"
       id="g358">&#10;<g
   id="g357">&#10;	<path
   d="M 99.805,32.031 H 100 V 0 H 0 V 32.031 H 0.195 C 0.065,33.073 0,33.854 0,34.375 v 31.25 C 0,75.13 3.353,83.236 10.059,89.941 16.765,96.646 24.87,100 34.375,100 h 31.25 C 75.13,100 83.236,96.646 89.941,89.941 96.646,83.236 100,75.13 100,65.625 v -31.25 c 0,-0.521 -0.063,-1.302 -0.195,-2.344 z"
   id="path356" />&#10;</g>&#10;</g></g><g
     transform="matrix(0.08,0,0,0.08,0,128)"
     id="g362"><g
       style="fill:#000000"
       id="g361">&#10;<g
   id="g360">&#10;	<path
   d="M 99.805,32.031 H 100 V 0 H 0 V 32.031 H 0.195 C 0.065,33.073 0,33.854 0,34.375 v 31.25 C 0,75.13 3.353,83.236 10.059,89.941 16.765,96.646 24.87,100 34.375,100 h 31.25 C 75.13,100 83.236,96.646 89.941,89.941 96.646,83.236 100,75.13 100,65.625 v -31.25 c 0,-0.521 -0.063,-1.302 -0.195,-2.344 z"
   id="path359" />&#10;</g>&#10;</g></g><g
     transform="matrix(0.08,0,0,0.08,32,128)"
     id="g365"><g
       style="fill:#000000"
       id="g364">&#10;<g
   id="g363">&#10;	<path
   d="M 99.805,32.031 H 100 V 0 H 0 V 32.031 H 0.195 C 0.065,33.073 0,33.854 0,34.375 v 31.25 C 0,75.13 3.353,83.236 10.059,89.941 16.765,96.646 24.87,100 34.375,100 h 31.25 C 75.13,100 83.236,96.646 89.941,89.941 96.646,83.236 100,75.13 100,65.625 v -31.25 c 0,-0.521 -0.063,-1.302 -0.195,-2.344 z"
   id="path362" />&#10;</g>&#10;</g></g><g
     transform="matrix(0.08,0,0,0.08,48,128)"
     id="g368"><g
       style="fill:#000000"
       id="g367">&#10;<g
   id="g366">&#10;	<path
   d="M 100,34.375 V 0 H 34.375 C 24.87,0 16.764,3.353 10.059,10.059 3.354,16.765 0,24.87 0,34.375 v 31.25 C 0,75.13 3.353,83.236 10.059,89.941 16.765,96.646 24.87,100 34.375,100 H 100 Z"
   id="path365" />&#10;</g>&#10;</g></g><g
     transform="matrix(0.08,0,0,0.08,56,128)"
     id="g371"><g
       style="fill:#000000"
       id="g370">&#10;<g
   id="g369">&#10;	<path
   d="M 100,0 H 0 V 100 H 65.625 C 75.13,100 83.236,96.646 89.941,89.941 96.646,83.236 100,75.13 100,65.625 Z"
   id="path368" />&#10;</g>&#10;</g></g><g
     transform="matrix(0.08,0,0,0.08,72,128)"
     id="g374"><g
       style="fill:#000000"
       id="g373">&#10;<g
   id="g372">&#10;	<path
   d="M 100,34.375 V 0 H 34.375 C 24.87,0 16.764,3.353 10.059,10.059 3.354,16.765 0,24.87 0,34.375 V 100 h 100 z"
   id="path371" />&#10;</g>&#10;</g></g><g
     transform="matrix(0.08,0,0,0.08,80,128)"
     id="g377"><g
       style="fill:#000000"
       id="g376">&#10;<g
   id="g375">&#10;	<path
   d="M 100,0 H 0 V 100 H 65.625 C 75.13,100 83.236,96.646 89.941,89.941 96.646,83.236 100,75.13 100,65.625 Z"
   id="path374" />&#10;</g>&#10;</g></g><g
     transform="matrix(0.08,0,0,0.08,104,128)"
     id="g380"><g
       style="fill:#000000"
       id="g379">&#10;<g
   id="g378">&#10;	<path
   d="M 100,34.375 V 0 H 34.375 C 24.87,0 16.764,3.353 10.059,10.059 3.354,16.765 0,24.87 0,34.375 V 100 h 100 z"
   id="path377" />&#10;</g>&#10;</g></g><g
     transform="matrix(0.08,0,0,0.08,112,128)"
     id="g382"><g
       style="fill:#000000"
       id="g381">&#10;<rect
   width="100"
   height="100"
   id="rect380"
   x="0"
   y="0" />&#10;</g></g><g
     transform="matrix(0.08,0,0,0.08,120,128)"
     id="g384"><g
       style="fill:#000000"
       id="g383">&#10;<rect
   width="100"
   height="100"
   id="rect382"
   x="0"
   y="0" />&#10;</g></g><g
     transform="matrix(0.08,0,0,0.08,128,128)"
     id="g386"><g
       style="fill:#000000"
       id="g385">&#10;<rect
   width="100"
   height="100"
   id="rect384"
   x="0"
   y="0" />&#10;</g></g><g
     transform="matrix(0.08,0,0,0.08,136,128)"
     id="g388"><g
       style="fill:#000000"
       id="g387">&#10;<rect
   width="100"
   height="100"
   id="rect386"
   x="0"
   y="0" />&#10;</g></g><g
     transform="matrix(0.08,0,0,0.08,144,128)"
     id="g390"><g
       style="fill:#000000"
       id="g389">&#10;<rect
   width="100"
   height="100"
   id="rect388"
   x="0"
   y="0" />&#10;</g></g><g
     transform="matrix(0.08,0,0,0.08,152,128)"
     id="g392"><g
       style="fill:#000000"
       id="g391">&#10;<rect
   width="100"
   height="100"
   id="rect390"
   x="0"
   y="0" />&#10;</g></g><g
     transform="matrix(0.08,0,0,0.08,160,128)"
     id="g395"><g
       style="fill:#000000"
       id="g394">&#10;<g
   id="g393">&#10;	<path
   d="M 100,34.375 C 100,24.87 96.646,16.764 89.941,10.059 83.236,3.354 75.13,0 65.625,0 H 0 v 100 h 100 z"
   id="path392" />&#10;</g>&#10;</g></g><g
     transform="matrix(0.08,0,0,0.08,176,128)"
     id="g398"><g
       style="fill:#000000"
       id="g397">&#10;<g
   id="g396">&#10;	<path
   d="M 99.805,32.031 H 100 V 0 H 0 V 32.031 H 0.195 C 0.065,33.073 0,33.854 0,34.375 v 31.25 C 0,75.13 3.353,83.236 10.059,89.941 16.765,96.646 24.87,100 34.375,100 h 31.25 C 75.13,100 83.236,96.646 89.941,89.941 96.646,83.236 100,75.13 100,65.625 v -31.25 c 0,-0.521 -0.063,-1.302 -0.195,-2.344 z"
   id="path395" />&#10;</g>&#10;</g></g><g
     transform="matrix(0.08,0,0,0.08,64,136)"
     id="g401"><g
       style="fill:#000000"
       id="g400">&#10;<g
   id="g399">&#10;	<path
   d="M 100,34.375 V 0 H 34.375 C 24.87,0 16.764,3.353 10.059,10.059 3.354,16.765 0,24.87 0,34.375 v 31.25 C 0,75.13 3.353,83.236 10.059,89.941 16.765,96.646 24.87,100 34.375,100 H 100 Z"
   id="path398" />&#10;</g>&#10;</g></g><g
     transform="matrix(0.08,0,0,0.08,72,136)"
     id="g403"><g
       style="fill:#000000"
       id="g402">&#10;<rect
   width="100"
   height="100"
   id="rect401"
   x="0"
   y="0" />&#10;</g></g><g
     transform="matrix(0.08,0,0,0.08,88,136)"
     id="g406"><g
       style="fill:#000000"
       id="g405">&#10;<g
   id="g404">&#10;	<path
   d="M 100,34.375 V 0 H 34.375 C 24.87,0 16.764,3.353 10.059,10.059 3.354,16.765 0,24.87 0,34.375 V 100 h 100 z"
   id="path403" />&#10;</g>&#10;</g></g><g
     transform="matrix(0.08,0,0,0.08,96,136)"
     id="g408"><g
       style="fill:#000000"
       id="g407">&#10;<rect
   width="100"
   height="100"
   id="rect406"
   x="0"
   y="0" />&#10;</g></g><g
     transform="matrix(0.08,0,0,0.08,104,136)"
     id="g410"><g
       style="fill:#000000"
       id="g409">&#10;<rect
   width="100"
   height="100"
   id="rect408"
   x="0"
   y="0" />&#10;</g></g><g
     transform="matrix(0.08,0,0,0.08,112,136)"
     id="g412"><g
       style="fill:#000000"
       id="g411">&#10;<rect
   width="100"
   height="100"
   id="rect410"
   x="0"
   y="0" />&#10;</g></g><g
     transform="matrix(0.08,0,0,0.08,128,136)"
     id="g414"><g
       style="fill:#000000"
       id="g413">&#10;<rect
   width="100"
   height="100"
   id="rect412"
   x="0"
   y="0" />&#10;</g></g><g
     transform="matrix(0.08,0,0,0.08,160,136)"
     id="g416"><g
       style="fill:#000000"
       id="g415">&#10;<rect
   width="100"
   height="100"
   id="rect414"
   x="0"
   y="0" />&#10;</g></g><g
     transform="matrix(0.08,0,0,0.08,72,144)"
     id="g419"><g
       style="fill:#000000"
       id="g418">&#10;<g
   id="g417">&#10;	<path
   d="M 99.805,32.031 H 100 V 0 H 0 V 32.031 H 0.195 C 0.065,33.073 0,33.854 0,34.375 v 31.25 C 0,75.13 3.353,83.236 10.059,89.941 16.765,96.646 24.87,100 34.375,100 h 31.25 C 75.13,100 83.236,96.646 89.941,89.941 96.646,83.236 100,75.13 100,65.625 v -31.25 c 0,-0.521 -0.063,-1.302 -0.195,-2.344 z"
   id="path416" />&#10;</g>&#10;</g></g><g
     transform="matrix(0.08,0,0,0.08,88,144)"
     id="g422"><g
       style="fill:#000000"
       id="g421">&#10;<g
   id="g420">&#10;	<path
   d="M 100,0 H 0 V 65.625 C 0,75.13 3.353,83.236 10.059,89.941 16.765,96.646 24.87,100 34.375,100 H 100 Z"
   id="path419" />&#10;</g>&#10;</g></g><g
     transform="matrix(0.08,0,0,0.08,96,144)"
     id="g424"><g
       style="fill:#000000"
       id="g423">&#10;<rect
   width="100"
   height="100"
   id="rect422"
   x="0"
   y="0" />&#10;</g></g><g
     transform="matrix(0.08,0,0,0.08,112,144)"
     id="g427"><g
       style="fill:#000000"
       id="g426">&#10;<g
   id="g425">&#10;	<path
   d="M 99.805,32.031 H 100 V 0 H 0 V 32.031 H 0.195 C 0.065,33.073 0,33.854 0,34.375 v 31.25 C 0,75.13 3.353,83.236 10.059,89.941 16.765,96.646 24.87,100 34.375,100 h 31.25 C 75.13,100 83.236,96.646 89.941,89.941 96.646,83.236 100,75.13 100,65.625 v -31.25 c 0,-0.521 -0.063,-1.302 -0.195,-2.344 z"
   id="path424" />&#10;</g>&#10;</g></g><g
     transform="matrix(0.08,0,0,0.08,128,144)"
     id="g429"><g
       style="fill:#000000"
       id="g428">&#10;<rect
   width="100"
   height="100"
   id="rect427"
   x="0"
   y="0" />&#10;</g></g><g
     transform="matrix(0.08,0,0,0.08,144,144)"
     id="g432"><g
       style="fill:#000000"
       id="g431">&#10;<g
   id="g430">&#10;	<path
   d="M 100,65.625 C 100,75.132 96.645,83.236 89.941,89.941 83.236,96.645 75.132,100 65.625,100 H 34.375 C 24.871,100 16.765,96.645 10.06,89.941 3.354,83.236 0,75.132 0,65.625 V 34.375 C 0,24.871 3.353,16.765 10.059,10.06 16.766,3.354 24.871,0 34.375,0 h 31.25 C 75.133,0 83.238,3.353 89.941,10.059 96.646,16.766 100,24.871 100,34.375 Z"
   id="path429" />&#10;</g>&#10;</g></g><g
     transform="matrix(0.08,0,0,0.08,160,144)"
     id="g434"><g
       style="fill:#000000"
       id="g433">&#10;<rect
   width="100"
   height="100"
   id="rect432"
   x="0"
   y="0" />&#10;</g></g><g
     transform="matrix(0.08,0,0,0.08,192,144)"
     id="g437"><g
       style="fill:#000000"
       id="g436">&#10;<g
   id="g435">&#10;	<path
   d="M 100,65.625 C 100,75.132 96.645,83.236 89.941,89.941 83.236,96.645 75.132,100 65.625,100 H 34.375 C 24.871,100 16.765,96.645 10.06,89.941 3.354,83.236 0,75.132 0,65.625 V 34.375 C 0,24.871 3.353,16.765 10.059,10.06 16.766,3.354 24.871,0 34.375,0 h 31.25 C 75.133,0 83.238,3.353 89.941,10.059 96.646,16.766 100,24.871 100,34.375 Z"
   id="path434" />&#10;</g>&#10;</g></g><g
     transform="matrix(0.08,0,0,0.08,96,152)"
     id="g440"><g
       style="fill:#000000"
       id="g439">&#10;<g
   id="g438">&#10;	<path
   d="M 99.805,32.031 H 100 V 0 H 0 V 32.031 H 0.195 C 0.065,33.073 0,33.854 0,34.375 v 31.25 C 0,75.13 3.353,83.236 10.059,89.941 16.765,96.646 24.87,100 34.375,100 h 31.25 C 75.13,100 83.236,96.646 89.941,89.941 96.646,83.236 100,75.13 100,65.625 v -31.25 c 0,-0.521 -0.063,-1.302 -0.195,-2.344 z"
   id="path437" />&#10;</g>&#10;</g></g><g
     transform="matrix(0.08,0,0,0.08,120,152)"
     id="g443"><g
       style="fill:#000000"
       id="g442">&#10;<g
   id="g441">&#10;	<path
   d="M 100,34.375 V 0 H 34.375 C 24.87,0 16.764,3.353 10.059,10.059 3.354,16.765 0,24.87 0,34.375 V 100 h 100 z"
   id="path440" />&#10;</g>&#10;</g></g><g
     transform="matrix(0.08,0,0,0.08,128,152)"
     id="g445"><g
       style="fill:#000000"
       id="g444">&#10;<rect
   width="100"
   height="100"
   id="rect443"
   x="0"
   y="0" />&#10;</g></g><g
     transform="matrix(0.08,0,0,0.08,160,152)"
     id="g447"><g
       style="fill:#000000"
       id="g446">&#10;<rect
   width="100"
   height="100"
   id="rect445"
   x="0"
   y="0" />&#10;</g></g><g
     transform="matrix(0.08,0,0,0.08,72,160)"
     id="g450"><g
       style="fill:#000000"
       id="g449">&#10;<g
   id="g448">&#10;	<path
   d="M 100,34.375 V 0 H 34.375 C 24.87,0 16.764,3.353 10.059,10.059 3.354,16.765 0,24.87 0,34.375 V 100 h 100 z"
   id="path447" />&#10;</g>&#10;</g></g><g
     transform="matrix(0.08,0,0,0.08,80,160)"
     id="g453"><g
       style="fill:#000000"
       id="g452">&#10;<g
   id="g451">&#10;	<path
   d="M 100,34.375 C 100,24.87 96.646,16.764 89.941,10.059 83.236,3.354 75.13,0 65.625,0 H 0 v 100 h 100 z"
   id="path450" />&#10;</g>&#10;</g></g><g
     transform="matrix(0.08,0,0,0.08,104,160)"
     id="g456"><g
       style="fill:#000000"
       id="g455">&#10;<g
   id="g454">&#10;	<path
   d="M 100,34.375 V 0 H 34.375 C 24.87,0 16.764,3.353 10.059,10.059 3.354,16.765 0,24.87 0,34.375 V 100 h 100 z"
   id="path453" />&#10;</g>&#10;</g></g><g
     transform="matrix(0.08,0,0,0.08,112,160)"
     id="g458"><g
       style="fill:#000000"
       id="g457">&#10;<rect
   width="100"
   height="100"
   id="rect456"
   x="0"
   y="0" />&#10;</g></g><g
     transform="matrix(0.08,0,0,0.08,120,160)"
     id="g460"><g
       style="fill:#000000"
       id="g459">&#10;<rect
   width="100"
   height="100"
   id="rect458"
   x="0"
   y="0" />&#10;</g></g><g
     transform="matrix(0.08,0,0,0.08,128,160)"
     id="g462"><g
       style="fill:#000000"
       id="g461">&#10;<rect
   width="100"
   height="100"
   id="rect460"
   x="0"
   y="0" />&#10;</g></g><g
     transform="matrix(0.08,0,0,0.08,136,160)"
     id="g464"><g
       style="fill:#000000"
       id="g463">&#10;<rect
   width="100"
   height="100"
   id="rect462"
   x="0"
   y="0" />&#10;</g></g><g
     transform="matrix(0.08,0,0,0.08,144,160)"
     id="g466"><g
       style="fill:#000000"
       id="g465">&#10;<rect
   width="100"
   height="100"
   id="rect464"
   x="0"
   y="0" />&#10;</g></g><g
     transform="matrix(0.08,0,0,0.08,152,160)"
     id="g468"><g
       style="fill:#000000"
       id="g467">&#10;<rect
   width="100"
   height="100"
   id="rect466"
   x="0"
   y="0" />&#10;</g></g><g
     transform="matrix(0.08,0,0,0.08,160,160)"
     id="g471"><g
       style="fill:#000000"
       id="g470">&#10;<g
   id="g469">&#10;	<path
   d="M 100,0 H 0 V 100 H 65.625 C 75.13,100 83.236,96.646 89.941,89.941 96.646,83.236 100,75.13 100,65.625 Z"
   id="path468" />&#10;</g>&#10;</g></g><g
     transform="matrix(0.08,0,0,0.08,176,160)"
     id="g474"><g
       style="fill:#000000"
       id="g473">&#10;<g
   id="g472">&#10;	<path
   d="M 100,65.625 C 100,75.132 96.645,83.236 89.941,89.941 83.236,96.645 75.132,100 65.625,100 H 34.375 C 24.871,100 16.765,96.645 10.06,89.941 3.354,83.236 0,75.132 0,65.625 V 34.375 C 0,24.871 3.353,16.765 10.059,10.06 16.766,3.354 24.871,0 34.375,0 h 31.25 C 75.133,0 83.238,3.353 89.941,10.059 96.646,16.766 100,24.871 100,34.375 Z"
   id="path471" />&#10;</g>&#10;</g></g><g
     transform="matrix(0.08,0,0,0.08,72,168)"
     id="g476"><g
       style="fill:#000000"
       id="g475">&#10;<rect
   width="100"
   height="100"
   id="rect474"
   x="0"
   y="0" />&#10;</g></g><g
     transform="matrix(0.08,0,0,0.08,80,168)"
     id="g478"><g
       style="fill:#000000"
       id="g477">&#10;<rect
   width="100"
   height="100"
   id="rect476"
   x="0"
   y="0" />&#10;</g></g><g
     transform="matrix(0.08,0,0,0.08,88,168)"
     id="g480"><g
       style="fill:#000000"
       id="g479">&#10;<rect
   width="100"
   height="100"
   id="rect478"
   x="0"
   y="0" />&#10;</g></g><g
     transform="matrix(0.08,0,0,0.08,96,168)"
     id="g482"><g
       style="fill:#000000"
       id="g481">&#10;<rect
   width="100"
   height="100"
   id="rect480"
   x="0"
   y="0" />&#10;</g></g><g
     transform="matrix(0.08,0,0,0.08,104,168)"
     id="g484"><g
       style="fill:#000000"
       id="g483">&#10;<rect
   width="100"
   height="100"
   id="rect482"
   x="0"
   y="0" />&#10;</g></g><g
     transform="matrix(0.08,0,0,0.08,112,168)"
     id="g486"><g
       style="fill:#000000"
       id="g485">&#10;<rect
   width="100"
   height="100"
   id="rect484"
   x="0"
   y="0" />&#10;</g></g><g
     transform="matrix(0.08,0,0,0.08,120,168)"
     id="g488"><g
       style="fill:#000000"
       id="g487">&#10;<rect
   width="100"
   height="100"
   id="rect486"
   x="0"
   y="0" />&#10;</g></g><g
     transform="matrix(0.08,0,0,0.08,128,168)"
     id="g490"><g
       style="fill:#000000"
       id="g489">&#10;<rect
   width="100"
   height="100"
   id="rect488"
   x="0"
   y="0" />&#10;</g></g><g
     transform="matrix(0.08,0,0,0.08,136,168)"
     id="g492"><g
       style="fill:#000000"
       id="g491">&#10;<rect
   width="100"
   height="100"
   id="rect490"
   x="0"
   y="0" />&#10;</g></g><g
     transform="matrix(0.08,0,0,0.08,144,168)"
     id="g495"><g
       style="fill:#000000"
       id="g494">&#10;<g
   id="g493">&#10;	<path
   d="M 100,0 H 0 V 100 H 65.625 C 75.13,100 83.236,96.646 89.941,89.941 96.646,83.236 100,75.13 100,65.625 Z"
   id="path492" />&#10;</g>&#10;</g></g><g
     transform="matrix(0.08,0,0,0.08,184,168)"
     id="g498"><g
       style="fill:#000000"
       id="g497">&#10;<g
   id="g496">&#10;	<path
   d="M 100,34.375 V 0 H 34.375 C 24.87,0 16.764,3.353 10.059,10.059 3.354,16.765 0,24.87 0,34.375 v 31.25 C 0,75.13 3.353,83.236 10.059,89.941 16.765,96.646 24.87,100 34.375,100 H 100 Z"
   id="path495" />&#10;</g>&#10;</g></g><g
     transform="matrix(0.08,0,0,0.08,192,168)"
     id="g501"><g
       style="fill:#000000"
       id="g500">&#10;<g
   id="g499">&#10;	<path
   d="M 100,34.375 C 100,24.87 96.646,16.764 89.941,10.059 83.236,3.354 75.13,0 65.625,0 H 0 v 100 h 100 z"
   id="path498" />&#10;</g>&#10;</g></g><g
     transform="matrix(0.08,0,0,0.08,72,176)"
     id="g504"><g
       style="fill:#000000"
       id="g503">&#10;<g
   id="g502">&#10;	<path
   d="M 100,0 H 0 V 65.625 C 0,75.13 3.353,83.236 10.059,89.941 16.765,96.646 24.87,100 34.375,100 H 100 Z"
   id="path501" />&#10;</g>&#10;</g></g><g
     transform="matrix(0.08,0,0,0.08,80,176)"
     id="g507"><g
       style="fill:#000000"
       id="g506">&#10;<g
   id="g505">&#10;	<path
   d="M 100,0 H 0 V 100 H 65.625 C 75.13,100 83.236,96.646 89.941,89.941 96.646,83.236 100,75.13 100,65.625 Z"
   id="path504" />&#10;</g>&#10;</g></g><g
     transform="matrix(0.08,0,0,0.08,168,176)"
     id="g510"><g
       style="fill:#000000"
       id="g509">&#10;<g
   id="g508">&#10;	<path
   d="M 100,34.375 V 0 H 34.375 C 24.87,0 16.764,3.353 10.059,10.059 3.354,16.765 0,24.87 0,34.375 v 31.25 C 0,75.13 3.353,83.236 10.059,89.941 16.765,96.646 24.87,100 34.375,100 H 100 Z"
   id="path507" />&#10;</g>&#10;</g></g><g
     transform="matrix(0.08,0,0,0.08,176,176)"
     id="g513"><g
       style="fill:#000000"
       id="g512">&#10;<g
   id="g511">&#10;	<path
   d="M 65.625,0 H 0 V 100 H 65.625 C 75.13,100 83.236,96.646 89.941,89.941 96.646,83.236 100,75.13 100,65.625 V 34.375 C 100,24.87 96.646,16.764 89.941,10.059 83.236,3.354 75.13,0 65.625,0 Z"
   id="path510" />&#10;</g>&#10;</g></g><g
     transform="matrix(0.08,0,0,0.08,192,176)"
     id="g515"><g
       style="fill:#000000"
       id="g514">&#10;<rect
   width="100"
   height="100"
   id="rect513"
   x="0"
   y="0" />&#10;</g></g><g
     transform="matrix(0.08,0,0,0.08,120,184)"
     id="g518"><g
       style="fill:#000000"
       id="g517">&#10;<g
   id="g516">&#10;	<path
   d="M 100,34.375 V 0 H 34.375 C 24.87,0 16.764,3.353 10.059,10.059 3.354,16.765 0,24.87 0,34.375 v 31.25 C 0,75.13 3.353,83.236 10.059,89.941 16.765,96.646 24.87,100 34.375,100 H 100 Z"
   id="path515" />&#10;</g>&#10;</g></g><g
     transform="matrix(0.08,0,0,0.08,128,184)"
     id="g521"><g
       style="fill:#000000"
       id="g520">&#10;<g
   id="g519">&#10;	<path
   d="M 100,34.375 C 100,24.87 96.646,16.764 89.941,10.059 83.236,3.354 75.13,0 65.625,0 H 0 v 100 h 100 z"
   id="path518" />&#10;</g>&#10;</g></g><g
     transform="matrix(0.08,0,0,0.08,152,184)"
     id="g524"><g
       style="fill:#000000"
       id="g523">&#10;<g
   id="g522">&#10;	<path
   d="M 100,34.375 V 0 H 34.375 C 24.87,0 16.764,3.353 10.059,10.059 3.354,16.765 0,24.87 0,34.375 v 31.25 C 0,75.13 3.353,83.236 10.059,89.941 16.765,96.646 24.87,100 34.375,100 H 100 Z"
   id="path521" />&#10;</g>&#10;</g></g><g
     transform="matrix(0.08,0,0,0.08,160,184)"
     id="g527"><g
       style="fill:#000000"
       id="g526">&#10;<g
   id="g525">&#10;	<path
   d="M 65.625,0 H 0 V 100 H 65.625 C 75.13,100 83.236,96.646 89.941,89.941 96.646,83.236 100,75.13 100,65.625 V 34.375 C 100,24.87 96.646,16.764 89.941,10.059 83.236,3.354 75.13,0 65.625,0 Z"
   id="path524" />&#10;</g>&#10;</g></g><g
     transform="matrix(0.08,0,0,0.08,192,184)"
     id="g529"><g
       style="fill:#000000"
       id="g528">&#10;<rect
   width="100"
   height="100"
   id="rect527"
   x="0"
   y="0" />&#10;</g></g><g
     transform="matrix(0.08,0,0,0.08,64,192)"
     id="g532"><g
       style="fill:#000000"
       id="g531">&#10;<g
   id="g530">&#10;	<path
   d="M 100,65.625 C 100,75.132 96.645,83.236 89.941,89.941 83.236,96.645 75.132,100 65.625,100 H 34.375 C 24.871,100 16.765,96.645 10.06,89.941 3.354,83.236 0,75.132 0,65.625 V 34.375 C 0,24.871 3.353,16.765 10.059,10.06 16.766,3.354 24.871,0 34.375,0 h 31.25 C 75.133,0 83.238,3.353 89.941,10.059 96.646,16.766 100,24.871 100,34.375 Z"
   id="path529" />&#10;</g>&#10;</g></g><g
     transform="matrix(0.08,0,0,0.08,80,192)"
     id="g535"><g
       style="fill:#000000"
       id="g534">&#10;<g
   id="g533">&#10;	<path
   d="M 100,34.375 V 0 H 34.375 C 24.87,0 16.764,3.353 10.059,10.059 3.354,16.765 0,24.87 0,34.375 v 31.25 C 0,75.13 3.353,83.236 10.059,89.941 16.765,96.646 24.87,100 34.375,100 H 100 Z"
   id="path532" />&#10;</g>&#10;</g></g><g
     transform="matrix(0.08,0,0,0.08,88,192)"
     id="g537"><g
       style="fill:#000000"
       id="g536">&#10;<rect
   width="100"
   height="100"
   id="rect535"
   x="0"
   y="0" />&#10;</g></g><g
     transform="matrix(0.08,0,0,0.08,96,192)"
     id="g540"><g
       style="fill:#000000"
       id="g539">&#10;<g
   id="g538">&#10;	<path
   d="M 65.625,0 H 0 V 100 H 65.625 C 75.13,100 83.236,96.646 89.941,89.941 96.646,83.236 100,75.13 100,65.625 V 34.375 C 100,24.87 96.646,16.764 89.941,10.059 83.236,3.354 75.13,0 65.625,0 Z"
   id="path537" />&#10;</g>&#10;</g></g><g
     transform="matrix(0.08,0,0,0.08,128,192)"
     id="g543"><g
       style="fill:#000000"
       id="g542">&#10;<g
   id="g541">&#10;	<path
   d="M 100,0 H 0 V 65.625 C 0,75.13 3.353,83.236 10.059,89.941 16.765,96.646 24.87,100 34.375,100 H 100 Z"
   id="path540" />&#10;</g>&#10;</g></g><g
     transform="matrix(0.08,0,0,0.08,136,192)"
     id="g545"><g
       style="fill:#000000"
       id="g544">&#10;<rect
   width="100"
   height="100"
   id="rect543"
   x="0"
   y="0" />&#10;</g></g><g
     transform="matrix(0.08,0,0,0.08,144,192)"
     id="g548"><g
       style="fill:#000000"
       id="g547">&#10;<g
   id="g546">&#10;	<path
   d="M 65.625,0 H 0 V 100 H 65.625 C 75.13,100 83.236,96.646 89.941,89.941 96.646,83.236 100,75.13 100,65.625 V 34.375 C 100,24.87 96.646,16.764 89.941,10.059 83.236,3.354 75.13,0 65.625,0 Z"
   id="path545" />&#10;</g>&#10;</g></g><g
     transform="matrix(0.08,0,0,0.08,168,192)"
     id="g551"><g
       style="fill:#000000"
       id="g550">&#10;<g
   id="g549">&#10;	<path
   d="M 100,65.625 C 100,75.132 96.645,83.236 89.941,89.941 83.236,96.645 75.132,100 65.625,100 H 34.375 C 24.871,100 16.765,96.645 10.06,89.941 3.354,83.236 0,75.132 0,65.625 V 34.375 C 0,24.871 3.353,16.765 10.059,10.06 16.766,3.354 24.871,0 34.375,0 h 31.25 C 75.133,0 83.238,3.353 89.941,10.059 96.646,16.766 100,24.871 100,34.375 Z"
   id="path548" />&#10;</g>&#10;</g></g><g
     transform="matrix(0.08,0,0,0.08,192,192)"
     id="g554"><g
       style="fill:#000000"
       id="g553">&#10;<g
   id="g552">&#10;	<path
   d="M 99.805,32.031 H 100 V 0 H 0 V 32.031 H 0.195 C 0.065,33.073 0,33.854 0,34.375 v 31.25 C 0,75.13 3.353,83.236 10.059,89.941 16.765,96.646 24.87,100 34.375,100 h 31.25 C 75.13,100 83.236,96.646 89.941,89.941 96.646,83.236 100,75.13 100,65.625 v -31.25 c 0,-0.521 -0.063,-1.302 -0.195,-2.344 z"
   id="path551" />&#10;</g>&#10;</g></g><g
     transform="scale(0.56)"
     id="g557"><g
       style="fill:#000000"
       id="g556">&#10;<g
   id="g555">&#10;	<path
   style="fill:none"
   d="M 65.859,15.008 H 34.141 c -4.082,0 -7.869,1.258 -10.979,3.398 -2.419,1.665 -4.428,3.864 -5.848,6.421 C 15.838,27.484 15,30.526 15,33.758 v 32.471 c 0,10.344 8.586,18.76 19.145,18.76 L 50,84.992 65.855,84.988 C 76.414,84.988 85,76.572 85,66.229 V 33.758 C 85,23.419 76.414,15.008 65.859,15.008 Z"
   id="path554" />&#10;	<path
   d="M 65.859,0.008 H 34.141 v 0 C 18.683,0.008 5.587,10.221 1.4,24.18 0.967,25.624 0.629,27.108 0.394,28.625 0.135,30.299 0,32.013 0,33.758 v 32.471 c 0,18.619 15.32,33.76 34.141,33.76 L 50,99.992 65.859,99.988 C 84.679,99.988 100,84.847 100,66.228 V 33.758 C 100,15.148 84.68,0.008 65.859,0.008 Z M 85,66.229 c 0,10.344 -8.586,18.76 -19.145,18.76 L 50,84.992 34.145,84.988 C 23.586,84.988 15,76.572 15,66.229 V 33.758 c 0,-3.231 0.838,-6.273 2.313,-8.931 1.42,-2.557 3.429,-4.756 5.848,-6.421 3.11,-2.141 6.897,-3.398 10.979,-3.398 H 65.859 C 76.414,15.008 85,23.419 85,33.758 Z"
   id="path555" />&#10;</g>&#10;</g></g><g
     transform="matrix(0.56,0,0,0.56,144,0)"
     id="g560"><g
       style="fill:#000000"
       id="g559">&#10;<g
   id="g558">&#10;	<path
   style="fill:none"
   d="M 65.859,15.008 H 34.141 c -4.082,0 -7.869,1.258 -10.979,3.398 -2.419,1.665 -4.428,3.864 -5.848,6.421 C 15.838,27.484 15,30.526 15,33.758 v 32.471 c 0,10.344 8.586,18.76 19.145,18.76 L 50,84.992 65.855,84.988 C 76.414,84.988 85,76.572 85,66.229 V 33.758 C 85,23.419 76.414,15.008 65.859,15.008 Z"
   id="path557" />&#10;	<path
   d="M 65.859,0.008 H 34.141 v 0 C 18.683,0.008 5.587,10.221 1.4,24.18 0.967,25.624 0.629,27.108 0.394,28.625 0.135,30.299 0,32.013 0,33.758 v 32.471 c 0,18.619 15.32,33.76 34.141,33.76 L 50,99.992 65.859,99.988 C 84.679,99.988 100,84.847 100,66.228 V 33.758 C 100,15.148 84.68,0.008 65.859,0.008 Z M 85,66.229 c 0,10.344 -8.586,18.76 -19.145,18.76 L 50,84.992 34.145,84.988 C 23.586,84.988 15,76.572 15,66.229 V 33.758 c 0,-3.231 0.838,-6.273 2.313,-8.931 1.42,-2.557 3.429,-4.756 5.848,-6.421 3.11,-2.141 6.897,-3.398 10.979,-3.398 H 65.859 C 76.414,15.008 85,23.419 85,33.758 Z"
   id="path558" />&#10;</g>&#10;</g></g><g
     transform="matrix(0.56,0,0,0.56,0,144)"
     id="g563"><g
       style="fill:#000000"
       id="g562">&#10;<g
   id="g561">&#10;	<path
   style="fill:none"
   d="M 65.859,15.008 H 34.141 c -4.082,0 -7.869,1.258 -10.979,3.398 -2.419,1.665 -4.428,3.864 -5.848,6.421 C 15.838,27.484 15,30.526 15,33.758 v 32.471 c 0,10.344 8.586,18.76 19.145,18.76 L 50,84.992 65.855,84.988 C 76.414,84.988 85,76.572 85,66.229 V 33.758 C 85,23.419 76.414,15.008 65.859,15.008 Z"
   id="path560" />&#10;	<path
   d="M 65.859,0.008 H 34.141 v 0 C 18.683,0.008 5.587,10.221 1.4,24.18 0.967,25.624 0.629,27.108 0.394,28.625 0.135,30.299 0,32.013 0,33.758 v 32.471 c 0,18.619 15.32,33.76 34.141,33.76 L 50,99.992 65.859,99.988 C 84.679,99.988 100,84.847 100,66.228 V 33.758 C 100,15.148 84.68,0.008 65.859,0.008 Z M 85,66.229 c 0,10.344 -8.586,18.76 -19.145,18.76 L 50,84.992 34.145,84.988 C 23.586,84.988 15,76.572 15,66.229 V 33.758 c 0,-3.231 0.838,-6.273 2.313,-8.931 1.42,-2.557 3.429,-4.756 5.848,-6.421 3.11,-2.141 6.897,-3.398 10.979,-3.398 H 65.859 C 76.414,15.008 85,23.419 85,33.758 Z"
   id="path561" />&#10;</g>&#10;</g></g><g
     transform="matrix(0.24,0,0,0.24,16,16)"
     id="g568"><g
       style="fill:#000000"
       id="g567">&#10;<g
   id="g566">&#10;	<g
   id="XMLID_1_">&#10;		<g
   id="g564">&#10;			<path
   d="M 27.351,100 C 12.261,100 -0.014,87.968 -0.014,73.192 V 26.794 c 0,-4.616 1.2,-8.96 3.301,-12.761 C 5.316,10.375 8.188,7.231 11.647,4.859 16.09,1.801 21.506,0 27.336,0 h 45.327 c 15.076,0 27.351,12.018 27.351,26.793 v 46.398 c 0,14.775 -12.274,26.808 -27.351,26.808 H 50 27.351 Z"
   id="path563" />&#10;		</g>&#10;		<g
   id="g565">&#10;		</g>&#10;	</g>&#10;</g>&#10;</g></g><g
     transform="matrix(0.24,0,0,0.24,160,16)"
     id="g574"><g
       style="fill:#000000"
       id="g573">&#10;<g
   id="g572">&#10;	<g
   id="g571">&#10;		<g
   id="g569">&#10;			<path
   d="M 27.351,100 C 12.261,100 -0.014,87.968 -0.014,73.192 V 26.794 c 0,-4.616 1.2,-8.96 3.301,-12.761 C 5.316,10.375 8.188,7.231 11.647,4.859 16.09,1.801 21.506,0 27.336,0 h 45.327 c 15.076,0 27.351,12.018 27.351,26.793 v 46.398 c 0,14.775 -12.274,26.808 -27.351,26.808 H 50 27.351 Z"
   id="path568" />&#10;		</g>&#10;		<g
   id="g570">&#10;		</g>&#10;	</g>&#10;</g>&#10;</g></g><g
     transform="matrix(0.24,0,0,0.24,16,160)"
     id="g580"><g
       style="fill:#000000"
       id="g579">&#10;<g
   id="g578">&#10;	<g
   id="g577">&#10;		<g
   id="g575">&#10;			<path
   d="M 27.351,100 C 12.261,100 -0.014,87.968 -0.014,73.192 V 26.794 c 0,-4.616 1.2,-8.96 3.301,-12.761 C 5.316,10.375 8.188,7.231 11.647,4.859 16.09,1.801 21.506,0 27.336,0 h 45.327 c 15.076,0 27.351,12.018 27.351,26.793 v 46.398 c 0,14.775 -12.274,26.808 -27.351,26.808 H 50 27.351 Z"
   id="path574" />&#10;		</g>&#10;		<g
   id="g576">&#10;		</g>&#10;	</g>&#10;</g>&#10;</g></g></g></svg>
